<svg width="167" height="40" viewBox="0 0 167 40" fill="none" xmlns="http://www.w3.org/2000/svg">
<path d="M36.168 15.418H31.8203V12.6758H36.168C36.8398 12.6758 37.3867 12.5664 37.8086 12.3477C38.2305 12.1211 38.5391 11.8086 38.7344 11.4102C38.9297 11.0117 39.0273 10.5625 39.0273 10.0625C39.0273 9.55469 38.9297 9.08203 38.7344 8.64453C38.5391 8.20703 38.2305 7.85547 37.8086 7.58984C37.3867 7.32422 36.8398 7.19141 36.168 7.19141H33.0391V21.5H29.5234V4.4375H36.168C37.5039 4.4375 38.6484 4.67969 39.6016 5.16406C40.5625 5.64063 41.2969 6.30078 41.8047 7.14453C42.3125 7.98828 42.5664 8.95312 42.5664 10.0391C42.5664 11.1406 42.3125 12.0938 41.8047 12.8984C41.2969 13.7031 40.5625 14.3242 39.6016 14.7617C38.6484 15.1992 37.5039 15.418 36.168 15.418ZM44.9922 4.4375H51.3555C52.6602 4.4375 53.7812 4.63281 54.7188 5.02344C55.6641 5.41406 56.3906 5.99219 56.8984 6.75781C57.4062 7.52344 57.6602 8.46484 57.6602 9.58203C57.6602 10.4961 57.5039 11.2812 57.1914 11.9375C56.8867 12.5859 56.4531 13.1289 55.8906 13.5664C55.3359 13.9961 54.6836 14.3398 53.9336 14.5977L52.8203 15.1836H47.2891L47.2656 12.4414H51.3789C51.9961 12.4414 52.5078 12.332 52.9141 12.1133C53.3203 11.8945 53.625 11.5898 53.8281 11.1992C54.0391 10.8086 54.1445 10.3555 54.1445 9.83984C54.1445 9.29297 54.043 8.82031 53.8398 8.42188C53.6367 8.02344 53.3281 7.71875 52.9141 7.50781C52.5 7.29688 51.9805 7.19141 51.3555 7.19141H48.5078V21.5H44.9922V4.4375ZM54.5312 21.5L50.6406 13.8945L54.3555 13.8711L58.293 21.3359V21.5H54.5312ZM64.1055 4.4375V21.5H60.6016V4.4375H64.1055ZM69.0039 4.4375H71.9805L76.3633 16.9648L80.7461 4.4375H83.7227L77.5586 21.5H75.168L69.0039 4.4375ZM67.3984 4.4375H70.3633L70.9023 16.6484V21.5H67.3984V4.4375ZM82.3633 4.4375H85.3398V21.5H81.8242V16.6484L82.3633 4.4375ZM97.3047 17.0352C97.3047 16.7305 97.2578 16.457 97.1641 16.2148C97.0781 15.9648 96.9141 15.7383 96.6719 15.5352C96.4297 15.3242 96.0898 15.1172 95.6523 14.9141C95.2148 14.7109 94.6484 14.5 93.9531 14.2812C93.1797 14.0312 92.4453 13.75 91.75 13.4375C91.0625 13.125 90.4531 12.7617 89.9219 12.3477C89.3984 11.9258 88.9844 11.4375 88.6797 10.8828C88.3828 10.3281 88.2344 9.68359 88.2344 8.94922C88.2344 8.23828 88.3906 7.59375 88.7031 7.01562C89.0156 6.42969 89.4531 5.92969 90.0156 5.51562C90.5781 5.09375 91.2422 4.76953 92.0078 4.54297C92.7812 4.31641 93.6289 4.20312 94.5508 4.20312C95.8086 4.20312 96.9062 4.42969 97.8438 4.88281C98.7812 5.33594 99.5078 5.95703 100.023 6.74609C100.547 7.53516 100.809 8.4375 100.809 9.45312H97.3164C97.3164 8.95312 97.2109 8.51562 97 8.14062C96.7969 7.75781 96.4844 7.45703 96.0625 7.23828C95.6484 7.01953 95.125 6.91016 94.4922 6.91016C93.8828 6.91016 93.375 7.00391 92.9688 7.19141C92.5625 7.37109 92.2578 7.61719 92.0547 7.92969C91.8516 8.23438 91.75 8.57812 91.75 8.96094C91.75 9.25 91.8203 9.51172 91.9609 9.74609C92.1094 9.98047 92.3281 10.1992 92.6172 10.4023C92.9062 10.6055 93.2617 10.7969 93.6836 10.9766C94.1055 11.1562 94.5938 11.332 95.1484 11.5039C96.0781 11.7852 96.8945 12.1016 97.5977 12.4531C98.3086 12.8047 98.9023 13.1992 99.3789 13.6367C99.8555 14.0742 100.215 14.5703 100.457 15.125C100.699 15.6797 100.82 16.3086 100.82 17.0117C100.82 17.7539 100.676 18.418 100.387 19.0039C100.098 19.5898 99.6797 20.0859 99.1328 20.4922C98.5859 20.8984 97.9336 21.207 97.1758 21.418C96.418 21.6289 95.5703 21.7344 94.6328 21.7344C93.7891 21.7344 92.957 21.625 92.1367 21.4062C91.3164 21.1797 90.5703 20.8398 89.8984 20.3867C89.2344 19.9336 88.7031 19.3555 88.3047 18.6523C87.9062 17.9492 87.707 17.1172 87.707 16.1562H91.2344C91.2344 16.6875 91.3164 17.1367 91.4805 17.5039C91.6445 17.8711 91.875 18.168 92.1719 18.3945C92.4766 18.6211 92.8359 18.7852 93.25 18.8867C93.6719 18.9883 94.1328 19.0391 94.6328 19.0391C95.2422 19.0391 95.7422 18.9531 96.1328 18.7812C96.5312 18.6094 96.8242 18.3711 97.0117 18.0664C97.207 17.7617 97.3047 17.418 97.3047 17.0352Z" fill="#F4BF4F"/>
<path d="M111.719 4.4375V24.6641H109.703V4.4375H111.719ZM128.148 7.35547L123.508 21.5H119.77L126.109 4.4375H128.488L128.148 7.35547ZM132.004 21.5L127.352 7.35547L126.977 4.4375H129.379L135.754 21.5H132.004ZM131.793 15.1484V17.9023H122.781V15.1484H131.793ZM143.98 15.418H139.633V12.6758H143.98C144.652 12.6758 145.199 12.5664 145.621 12.3477C146.043 12.1211 146.352 11.8086 146.547 11.4102C146.742 11.0117 146.84 10.5625 146.84 10.0625C146.84 9.55469 146.742 9.08203 146.547 8.64453C146.352 8.20703 146.043 7.85547 145.621 7.58984C145.199 7.32422 144.652 7.19141 143.98 7.19141H140.852V21.5H137.336V4.4375H143.98C145.316 4.4375 146.461 4.67969 147.414 5.16406C148.375 5.64063 149.109 6.30078 149.617 7.14453C150.125 7.98828 150.379 8.95312 150.379 10.0391C150.379 11.1406 150.125 12.0938 149.617 12.8984C149.109 13.7031 148.375 14.3242 147.414 14.7617C146.461 15.1992 145.316 15.418 143.98 15.418ZM162.695 15.8398H166.199C166.129 16.9883 165.812 18.0078 165.25 18.8984C164.695 19.7891 163.918 20.4844 162.918 20.9844C161.926 21.4844 160.73 21.7344 159.332 21.7344C158.238 21.7344 157.258 21.5469 156.391 21.1719C155.523 20.7891 154.781 20.2422 154.164 19.5312C153.555 18.8203 153.09 17.9609 152.77 16.9531C152.449 15.9453 152.289 14.8164 152.289 13.5664V12.3828C152.289 11.1328 152.453 10.0039 152.781 8.99609C153.117 7.98047 153.594 7.11719 154.211 6.40625C154.836 5.69531 155.582 5.14844 156.449 4.76562C157.316 4.38281 158.285 4.19141 159.355 4.19141C160.777 4.19141 161.977 4.44922 162.953 4.96484C163.938 5.48047 164.699 6.19141 165.238 7.09766C165.785 8.00391 166.113 9.03516 166.223 10.1914H162.707C162.668 9.50391 162.531 8.92188 162.297 8.44531C162.062 7.96094 161.707 7.59766 161.23 7.35547C160.762 7.10547 160.137 6.98047 159.355 6.98047C158.77 6.98047 158.258 7.08984 157.82 7.30859C157.383 7.52734 157.016 7.85938 156.719 8.30469C156.422 8.75 156.199 9.3125 156.051 9.99219C155.91 10.6641 155.84 11.4531 155.84 12.3594V13.5664C155.84 14.4492 155.906 15.2266 156.039 15.8984C156.172 16.5625 156.375 17.125 156.648 17.5859C156.93 18.0391 157.289 18.3828 157.727 18.6172C158.172 18.8438 158.707 18.957 159.332 18.957C160.066 18.957 160.672 18.8398 161.148 18.6055C161.625 18.3711 161.988 18.0234 162.238 17.5625C162.496 17.1016 162.648 16.5273 162.695 15.8398Z" fill="#001D6C"/>
<path d="M132.457 35.6172C132.016 35.6172 131.615 35.543 131.256 35.3945C130.9 35.2422 130.594 35.0293 130.336 34.7559C130.082 34.4824 129.887 34.1582 129.75 33.7832C129.613 33.4082 129.545 32.998 129.545 32.5527V32.3066C129.545 31.791 129.621 31.332 129.773 30.9297C129.926 30.5234 130.133 30.1797 130.395 29.8984C130.656 29.6172 130.953 29.4043 131.285 29.2598C131.617 29.1152 131.961 29.043 132.316 29.043C132.77 29.043 133.16 29.1211 133.488 29.2773C133.82 29.4336 134.092 29.6523 134.303 29.9336C134.514 30.2109 134.67 30.5391 134.771 30.918C134.873 31.293 134.924 31.7031 134.924 32.1484V32.6348H130.189V31.75H133.84V31.668C133.824 31.3867 133.766 31.1133 133.664 30.8477C133.566 30.582 133.41 30.3633 133.195 30.1914C132.98 30.0195 132.688 29.9336 132.316 29.9336C132.07 29.9336 131.844 29.9863 131.637 30.0918C131.43 30.1934 131.252 30.3457 131.104 30.5488C130.955 30.752 130.84 31 130.758 31.293C130.676 31.5859 130.635 31.9238 130.635 32.3066V32.5527C130.635 32.8535 130.676 33.1367 130.758 33.4023C130.844 33.6641 130.967 33.8945 131.127 34.0938C131.291 34.293 131.488 34.4492 131.719 34.5625C131.953 34.6758 132.219 34.7324 132.516 34.7324C132.898 34.7324 133.223 34.6543 133.488 34.498C133.754 34.3418 133.986 34.1328 134.186 33.8711L134.842 34.3926C134.705 34.5996 134.531 34.7969 134.32 34.9844C134.109 35.1719 133.85 35.3242 133.541 35.4414C133.236 35.5586 132.875 35.6172 132.457 35.6172ZM138.445 31.4277V32.3184H135.586V31.4277H138.445ZM142.043 34.7266C142.301 34.7266 142.539 34.6738 142.758 34.5684C142.977 34.4629 143.156 34.3184 143.297 34.1348C143.438 33.9473 143.518 33.7344 143.537 33.4961H144.568C144.549 33.8711 144.422 34.2207 144.188 34.5449C143.957 34.8652 143.654 35.125 143.279 35.3242C142.904 35.5195 142.492 35.6172 142.043 35.6172C141.566 35.6172 141.15 35.5332 140.795 35.3652C140.443 35.1973 140.15 34.9668 139.916 34.6738C139.686 34.3809 139.512 34.0449 139.395 33.666C139.281 33.2832 139.225 32.8789 139.225 32.4531V32.207C139.225 31.7812 139.281 31.3789 139.395 31C139.512 30.6172 139.686 30.2793 139.916 29.9863C140.15 29.6934 140.443 29.4629 140.795 29.2949C141.15 29.127 141.566 29.043 142.043 29.043C142.539 29.043 142.973 29.1445 143.344 29.3477C143.715 29.5469 144.006 29.8203 144.217 30.168C144.432 30.5117 144.549 30.9023 144.568 31.3398H143.537C143.518 31.0781 143.443 30.8418 143.314 30.6309C143.189 30.4199 143.018 30.252 142.799 30.127C142.584 29.998 142.332 29.9336 142.043 29.9336C141.711 29.9336 141.432 30 141.205 30.1328C140.982 30.2617 140.805 30.4375 140.672 30.6602C140.543 30.8789 140.449 31.123 140.391 31.3926C140.336 31.6582 140.309 31.9297 140.309 32.207V32.4531C140.309 32.7305 140.336 33.0039 140.391 33.2734C140.445 33.543 140.537 33.7871 140.666 34.0059C140.799 34.2246 140.977 34.4004 141.199 34.5332C141.426 34.6621 141.707 34.7266 142.043 34.7266ZM146.965 26.5V35.5H145.875V26.5H146.965ZM149.883 29.1602V35.5H148.793V29.1602H149.883ZM148.711 27.4785C148.711 27.3027 148.764 27.1543 148.869 27.0332C148.979 26.9121 149.139 26.8516 149.35 26.8516C149.557 26.8516 149.715 26.9121 149.824 27.0332C149.938 27.1543 149.994 27.3027 149.994 27.4785C149.994 27.6465 149.938 27.791 149.824 27.9121C149.715 28.0293 149.557 28.0879 149.35 28.0879C149.139 28.0879 148.979 28.0293 148.869 27.9121C148.764 27.791 148.711 27.6465 148.711 27.4785ZM152.707 30.5137V35.5H151.623V29.1602H152.648L152.707 30.5137ZM152.449 32.0898L151.998 32.0723C152.002 31.6387 152.066 31.2383 152.191 30.8711C152.316 30.5 152.492 30.1777 152.719 29.9043C152.945 29.6309 153.215 29.4199 153.527 29.2715C153.844 29.1191 154.193 29.043 154.576 29.043C154.889 29.043 155.17 29.0859 155.42 29.1719C155.67 29.2539 155.883 29.3867 156.059 29.5703C156.238 29.7539 156.375 29.9922 156.469 30.2852C156.562 30.5742 156.609 30.9277 156.609 31.3457V35.5H155.52V31.334C155.52 31.002 155.471 30.7363 155.373 30.5371C155.275 30.334 155.133 30.1875 154.945 30.0977C154.758 30.0039 154.527 29.957 154.254 29.957C153.984 29.957 153.738 30.0137 153.516 30.127C153.297 30.2402 153.107 30.3965 152.947 30.5957C152.791 30.7949 152.668 31.0234 152.578 31.2812C152.492 31.5352 152.449 31.8047 152.449 32.0898ZM159.434 29.1602V35.5H158.344V29.1602H159.434ZM158.262 27.4785C158.262 27.3027 158.314 27.1543 158.42 27.0332C158.529 26.9121 158.689 26.8516 158.9 26.8516C159.107 26.8516 159.266 26.9121 159.375 27.0332C159.488 27.1543 159.545 27.3027 159.545 27.4785C159.545 27.6465 159.488 27.791 159.375 27.9121C159.266 28.0293 159.107 28.0879 158.9 28.0879C158.689 28.0879 158.529 28.0293 158.42 27.9121C158.314 27.791 158.262 27.6465 158.262 27.4785ZM163.711 34.7266C163.969 34.7266 164.207 34.6738 164.426 34.5684C164.645 34.4629 164.824 34.3184 164.965 34.1348C165.105 33.9473 165.186 33.7344 165.205 33.4961H166.236C166.217 33.8711 166.09 34.2207 165.855 34.5449C165.625 34.8652 165.322 35.125 164.947 35.3242C164.572 35.5195 164.16 35.6172 163.711 35.6172C163.234 35.6172 162.818 35.5332 162.463 35.3652C162.111 35.1973 161.818 34.9668 161.584 34.6738C161.354 34.3809 161.18 34.0449 161.062 33.666C160.949 33.2832 160.893 32.8789 160.893 32.4531V32.207C160.893 31.7812 160.949 31.3789 161.062 31C161.18 30.6172 161.354 30.2793 161.584 29.9863C161.818 29.6934 162.111 29.4629 162.463 29.2949C162.818 29.127 163.234 29.043 163.711 29.043C164.207 29.043 164.641 29.1445 165.012 29.3477C165.383 29.5469 165.674 29.8203 165.885 30.168C166.1 30.5117 166.217 30.9023 166.236 31.3398H165.205C165.186 31.0781 165.111 30.8418 164.982 30.6309C164.857 30.4199 164.686 30.252 164.467 30.127C164.252 29.998 164 29.9336 163.711 29.9336C163.379 29.9336 163.1 30 162.873 30.1328C162.65 30.2617 162.473 30.4375 162.34 30.6602C162.211 30.8789 162.117 31.123 162.059 31.3926C162.004 31.6582 161.977 31.9297 161.977 32.207V32.4531C161.977 32.7305 162.004 33.0039 162.059 33.2734C162.113 33.543 162.205 33.7871 162.334 34.0059C162.467 34.2246 162.645 34.4004 162.867 34.5332C163.094 34.6621 163.375 34.7266 163.711 34.7266Z" fill="#404040"/>
</svg>
