<svg width="111" height="53" viewBox="0 0 111 53" fill="none" xmlns="http://www.w3.org/2000/svg">
<path d="M12.4863 22.877H5.96484V18.7637H12.4863C13.4941 18.7637 14.3145 18.5996 14.9473 18.2715C15.5801 17.9316 16.043 17.4629 16.3359 16.8652C16.6289 16.2676 16.7754 15.5938 16.7754 14.8438C16.7754 14.082 16.6289 13.373 16.3359 12.7168C16.043 12.0605 15.5801 11.5332 14.9473 11.1348C14.3145 10.7363 13.4941 10.5371 12.4863 10.5371H7.79297V32H2.51953V6.40625H12.4863C14.4902 6.40625 16.207 6.76953 17.6367 7.49609C19.0781 8.21094 20.1797 9.20117 20.9414 10.4668C21.7031 11.7324 22.084 13.1797 22.084 14.8086C22.084 16.4609 21.7031 17.8906 20.9414 19.0977C20.1797 20.3047 19.0781 21.2363 17.6367 21.8926C16.207 22.5488 14.4902 22.877 12.4863 22.877ZM25.7227 6.40625H35.2676C37.2246 6.40625 38.9062 6.69922 40.3125 7.28516C41.7305 7.87109 42.8203 8.73828 43.582 9.88672C44.3438 11.0352 44.7246 12.4473 44.7246 14.123C44.7246 15.4941 44.4902 16.6719 44.0215 17.6562C43.5645 18.6289 42.9141 19.4434 42.0703 20.0996C41.2383 20.7441 40.2598 21.2598 39.1348 21.6465L37.4648 22.5254H29.168L29.1328 18.4121H35.3027C36.2285 18.4121 36.9961 18.248 37.6055 17.9199C38.2148 17.5918 38.6719 17.1348 38.9766 16.5488C39.293 15.9629 39.4512 15.2832 39.4512 14.5098C39.4512 13.6895 39.2988 12.9805 38.9941 12.3828C38.6895 11.7852 38.2266 11.3281 37.6055 11.0117C36.9844 10.6953 36.2051 10.5371 35.2676 10.5371H30.9961V32H25.7227V6.40625ZM40.0312 32L34.1953 20.5918L39.7676 20.5566L45.6738 31.7539V32H40.0312ZM54.3926 6.40625V32H49.1367V6.40625H54.3926ZM61.7402 6.40625H66.2051L72.7793 25.1973L79.3535 6.40625H83.8184L74.5723 32H70.9863L61.7402 6.40625ZM59.332 6.40625H63.7793L64.5879 24.7227V32H59.332V6.40625ZM81.7793 6.40625H86.2441V32H80.9707V24.7227L81.7793 6.40625ZM104.191 25.3027C104.191 24.8457 104.121 24.4355 103.98 24.0723C103.852 23.6973 103.605 23.3574 103.242 23.0527C102.879 22.7363 102.369 22.4258 101.713 22.1211C101.057 21.8164 100.207 21.5 99.1641 21.1719C98.0039 20.7969 96.9023 20.375 95.8594 19.9062C94.8281 19.4375 93.9141 18.8926 93.1172 18.2715C92.332 17.6387 91.7109 16.9062 91.2539 16.0742C90.8086 15.2422 90.5859 14.2754 90.5859 13.1738C90.5859 12.1074 90.8203 11.1406 91.2891 10.2734C91.7578 9.39453 92.4141 8.64453 93.2578 8.02344C94.1016 7.39062 95.0977 6.9043 96.2461 6.56445C97.4062 6.22461 98.6777 6.05469 100.061 6.05469C101.947 6.05469 103.594 6.39453 105 7.07422C106.406 7.75391 107.496 8.68555 108.27 9.86914C109.055 11.0527 109.447 12.4062 109.447 13.9297H104.209C104.209 13.1797 104.051 12.5234 103.734 11.9609C103.43 11.3867 102.961 10.9355 102.328 10.6074C101.707 10.2793 100.922 10.1152 99.9727 10.1152C99.0586 10.1152 98.2969 10.2559 97.6875 10.5371C97.0781 10.8066 96.6211 11.1758 96.3164 11.6445C96.0117 12.1016 95.8594 12.6172 95.8594 13.1914C95.8594 13.625 95.9648 14.0176 96.1758 14.3691C96.3984 14.7207 96.7266 15.0488 97.1602 15.3535C97.5938 15.6582 98.127 15.9453 98.7598 16.2148C99.3926 16.4844 100.125 16.748 100.957 17.0059C102.352 17.4277 103.576 17.9023 104.631 18.4297C105.697 18.957 106.588 19.5488 107.303 20.2051C108.018 20.8613 108.557 21.6055 108.92 22.4375C109.283 23.2695 109.465 24.2129 109.465 25.2676C109.465 26.3809 109.248 27.377 108.814 28.2559C108.381 29.1348 107.754 29.8789 106.934 30.4883C106.113 31.0977 105.135 31.5605 103.998 31.877C102.861 32.1934 101.59 32.3516 100.184 32.3516C98.918 32.3516 97.6699 32.1875 96.4395 31.8594C95.209 31.5195 94.0898 31.0098 93.082 30.3301C92.0859 29.6504 91.2891 28.7832 90.6914 27.7285C90.0938 26.6738 89.7949 25.4258 89.7949 23.9844H95.0859C95.0859 24.7812 95.209 25.4551 95.4551 26.0059C95.7012 26.5566 96.0469 27.002 96.4922 27.3418C96.9492 27.6816 97.4883 27.9277 98.1094 28.0801C98.7422 28.2324 99.4336 28.3086 100.184 28.3086C101.098 28.3086 101.848 28.1797 102.434 27.9219C103.031 27.6641 103.471 27.3066 103.752 26.8496C104.045 26.3926 104.191 25.877 104.191 25.3027Z" fill="#0F4081"/>
<path d="M20.3203 43.9277L18 51H16.1309L19.3008 42.4688H20.4902L20.3203 43.9277ZM22.248 51L19.9219 43.9277L19.7344 42.4688H20.9355L24.123 51H22.248ZM22.1426 47.8242V49.2012H17.6367V47.8242H22.1426ZM28.2363 47.959H26.0625V46.5879H28.2363C28.5723 46.5879 28.8457 46.5332 29.0566 46.4238C29.2676 46.3105 29.4219 46.1543 29.5195 45.9551C29.6172 45.7559 29.666 45.5312 29.666 45.2812C29.666 45.0273 29.6172 44.791 29.5195 44.5723C29.4219 44.3535 29.2676 44.1777 29.0566 44.0449C28.8457 43.9121 28.5723 43.8457 28.2363 43.8457H26.6719V51H24.9141V42.4688H28.2363C28.9043 42.4688 29.4766 42.5898 29.9531 42.832C30.4336 43.0703 30.8008 43.4004 31.0547 43.8223C31.3086 44.2441 31.4355 44.7266 31.4355 45.2695C31.4355 45.8203 31.3086 46.2969 31.0547 46.6992C30.8008 47.1016 30.4336 47.4121 29.9531 47.6309C29.4766 47.8496 28.9043 47.959 28.2363 47.959ZM37.5938 48.1699H39.3457C39.3105 48.7441 39.1523 49.2539 38.8711 49.6992C38.5938 50.1445 38.2051 50.4922 37.7051 50.7422C37.209 50.9922 36.6113 51.1172 35.9121 51.1172C35.3652 51.1172 34.875 51.0234 34.4414 50.8359C34.0078 50.6445 33.6367 50.3711 33.3281 50.0156C33.0234 49.6602 32.791 49.2305 32.6309 48.7266C32.4707 48.2227 32.3906 47.6582 32.3906 47.0332V46.4414C32.3906 45.8164 32.4727 45.252 32.6367 44.748C32.8047 44.2402 33.043 43.8086 33.3516 43.4531C33.6641 43.0977 34.0371 42.8242 34.4707 42.6328C34.9043 42.4414 35.3887 42.3457 35.9238 42.3457C36.6348 42.3457 37.2344 42.4746 37.7227 42.7324C38.2148 42.9902 38.5957 43.3457 38.8652 43.7988C39.1387 44.252 39.3027 44.7676 39.3574 45.3457H37.5996C37.5801 45.002 37.5117 44.7109 37.3945 44.4727C37.2773 44.2305 37.0996 44.0488 36.8613 43.9277C36.627 43.8027 36.3145 43.7402 35.9238 43.7402C35.6309 43.7402 35.375 43.7949 35.1562 43.9043C34.9375 44.0137 34.7539 44.1797 34.6055 44.4023C34.457 44.625 34.3457 44.9062 34.2715 45.2461C34.2012 45.582 34.166 45.9766 34.166 46.4297V47.0332C34.166 47.4746 34.1992 47.8633 34.2656 48.1992C34.332 48.5312 34.4336 48.8125 34.5703 49.043C34.7109 49.2695 34.8906 49.4414 35.1094 49.5586C35.332 49.6719 35.5996 49.7285 35.9121 49.7285C36.2793 49.7285 36.582 49.6699 36.8203 49.5527C37.0586 49.4355 37.2402 49.2617 37.3652 49.0312C37.4941 48.8008 37.5703 48.5137 37.5938 48.1699ZM49.2129 49.6289V51H44.6719V49.6289H49.2129ZM45.2461 42.4688V51H43.4883V42.4688H45.2461ZM48.6211 45.9434V47.2793H44.6719V45.9434H48.6211ZM49.207 42.4688V43.8457H44.6719V42.4688H49.207ZM53.4609 46.6758V48H50.1504V46.6758H53.4609ZM59.918 48.1699H61.6699C61.6348 48.7441 61.4766 49.2539 61.1953 49.6992C60.918 50.1445 60.5293 50.4922 60.0293 50.7422C59.5332 50.9922 58.9355 51.1172 58.2363 51.1172C57.6895 51.1172 57.1992 51.0234 56.7656 50.8359C56.332 50.6445 55.9609 50.3711 55.6523 50.0156C55.3477 49.6602 55.1152 49.2305 54.9551 48.7266C54.7949 48.2227 54.7148 47.6582 54.7148 47.0332V46.4414C54.7148 45.8164 54.7969 45.252 54.9609 44.748C55.1289 44.2402 55.3672 43.8086 55.6758 43.4531C55.9883 43.0977 56.3613 42.8242 56.7949 42.6328C57.2285 42.4414 57.7129 42.3457 58.248 42.3457C58.959 42.3457 59.5586 42.4746 60.0469 42.7324C60.5391 42.9902 60.9199 43.3457 61.1895 43.7988C61.4629 44.252 61.627 44.7676 61.6816 45.3457H59.9238C59.9043 45.002 59.8359 44.7109 59.7188 44.4727C59.6016 44.2305 59.4238 44.0488 59.1855 43.9277C58.9512 43.8027 58.6387 43.7402 58.248 43.7402C57.9551 43.7402 57.6992 43.7949 57.4805 43.9043C57.2617 44.0137 57.0781 44.1797 56.9297 44.4023C56.7812 44.625 56.6699 44.9062 56.5957 45.2461C56.5254 45.582 56.4902 45.9766 56.4902 46.4297V47.0332C56.4902 47.4746 56.5234 47.8633 56.5898 48.1992C56.6562 48.5312 56.7578 48.8125 56.8945 49.043C57.0352 49.2695 57.2148 49.4414 57.4336 49.5586C57.6562 49.6719 57.9238 49.7285 58.2363 49.7285C58.6035 49.7285 58.9062 49.6699 59.1445 49.5527C59.3828 49.4355 59.5645 49.2617 59.6895 49.0312C59.8184 48.8008 59.8945 48.5137 59.918 48.1699ZM68.3086 49.6289V51H64.0137V49.6289H68.3086ZM64.582 42.4688V51H62.8242V42.4688H64.582ZM71.1855 42.4688V51H69.4336V42.4688H71.1855ZM79.7754 42.4688V51H78.0176L74.5898 45.2812V51H72.832V42.4688H74.5898L78.0234 48.1934V42.4688H79.7754ZM83.1738 42.4688V51H81.4219V42.4688H83.1738ZM89.7656 48.1699H91.5176C91.4824 48.7441 91.3242 49.2539 91.043 49.6992C90.7656 50.1445 90.377 50.4922 89.877 50.7422C89.3809 50.9922 88.7832 51.1172 88.084 51.1172C87.5371 51.1172 87.0469 51.0234 86.6133 50.8359C86.1797 50.6445 85.8086 50.3711 85.5 50.0156C85.1953 49.6602 84.9629 49.2305 84.8027 48.7266C84.6426 48.2227 84.5625 47.6582 84.5625 47.0332V46.4414C84.5625 45.8164 84.6445 45.252 84.8086 44.748C84.9766 44.2402 85.2148 43.8086 85.5234 43.4531C85.8359 43.0977 86.209 42.8242 86.6426 42.6328C87.0762 42.4414 87.5605 42.3457 88.0957 42.3457C88.8066 42.3457 89.4062 42.4746 89.8945 42.7324C90.3867 42.9902 90.7676 43.3457 91.0371 43.7988C91.3105 44.252 91.4746 44.7676 91.5293 45.3457H89.7715C89.752 45.002 89.6836 44.7109 89.5664 44.4727C89.4492 44.2305 89.2715 44.0488 89.0332 43.9277C88.7988 43.8027 88.4863 43.7402 88.0957 43.7402C87.8027 43.7402 87.5469 43.7949 87.3281 43.9043C87.1094 44.0137 86.9258 44.1797 86.7773 44.4023C86.6289 44.625 86.5176 44.9062 86.4434 45.2461C86.373 45.582 86.3379 45.9766 86.3379 46.4297V47.0332C86.3379 47.4746 86.3711 47.8633 86.4375 48.1992C86.5039 48.5312 86.6055 48.8125 86.7422 49.043C86.8828 49.2695 87.0625 49.4414 87.2812 49.5586C87.5039 49.6719 87.7715 49.7285 88.084 49.7285C88.4512 49.7285 88.7539 49.6699 88.9922 49.5527C89.2305 49.4355 89.4121 49.2617 89.5371 49.0312C89.666 48.8008 89.7422 48.5137 89.7656 48.1699Z" fill="white"/>
</svg>
