<svg width="18" height="18" viewBox="0 0 18 18" fill="none" xmlns="http://www.w3.org/2000/svg">
<path fill-rule="evenodd" clip-rule="evenodd" d="M4.34604 0.528063C4.47707 0.630974 4.62423 0.769428 4.79354 0.936658C5.15628 1.29367 5.57711 1.86565 5.93821 2.41476C6.30336 2.97002 6.64172 3.55455 6.83137 3.9614L6.83149 3.96166L6.83161 3.96192C6.9391 4.19308 7.03599 4.40256 7.10409 4.58615C7.17325 4.7726 7.23073 4.97768 7.2311 5.20147C7.23187 5.66993 6.97761 6.03148 6.73269 6.36496C6.66232 6.46075 6.60254 6.53926 6.55101 6.60692C6.43994 6.75277 6.36713 6.84838 6.30883 6.95895C6.25197 7.06682 6.23538 7.14469 6.26229 7.27006C6.3011 7.45083 6.46981 7.84653 6.79741 8.36418C7.11423 8.8648 7.548 9.42946 8.06628 9.9461C8.58445 10.4626 9.14014 10.885 9.63077 11.1906C10.1363 11.5055 10.5257 11.6671 10.7117 11.7068C10.8411 11.7344 10.9219 11.7171 11.03 11.6609C11.144 11.6015 11.2454 11.5241 11.4032 11.4037C11.4651 11.3563 11.5358 11.3024 11.6194 11.2403L11.6195 11.2402L11.6258 11.2355C11.9604 10.9869 12.3322 10.7107 12.8034 10.7112C13.0363 10.7114 13.2452 10.7771 13.4292 10.8523C13.605 10.924 13.807 11.0258 14.0286 11.1374L14.0471 11.1467C14.4354 11.3425 15.0128 11.6742 15.5717 12.0358C16.1207 12.391 16.7001 12.8057 17.0608 13.1692L17.0614 13.1697C17.2291 13.3391 17.3679 13.4862 17.471 13.6172C17.5709 13.744 17.6805 13.908 17.7267 14.112C17.7788 14.3419 17.7316 14.533 17.6832 14.6657C17.6614 14.7255 17.6357 14.7829 17.6172 14.8239C17.6143 14.8303 17.6115 14.8366 17.6087 14.8427C17.5916 14.8807 17.5766 14.914 17.5607 14.952L17.5603 14.9529L17.5599 14.9539C17.3966 15.341 17.198 15.7123 16.9666 16.063L16.9659 16.0641L16.9652 16.0651C16.5131 16.7445 16.0877 17.1883 15.4265 17.4963C15.0828 17.6564 14.5919 17.818 13.8289 17.7229C13.095 17.6313 12.1403 17.3064 10.8372 16.5766L10.8369 16.5764C8.75169 15.407 7.30483 14.3988 5.43841 12.5375C3.57747 10.6818 2.66277 9.47062 1.38142 7.14287C0.0914698 4.79947 0.0933177 3.35437 0.461698 2.56719C0.770998 1.90625 1.2193 1.48283 1.89637 1.033L1.8977 1.03211L1.89904 1.03124C2.25014 0.800562 2.62162 0.602525 3.00883 0.439606L3.01011 0.439069L3.01139 0.438537C3.04971 0.422614 3.08322 0.407589 3.12155 0.39041C3.12755 0.387716 3.13368 0.38497 3.13996 0.382158C3.18114 0.363731 3.23856 0.338114 3.29831 0.316411C3.43075 0.268306 3.62156 0.221316 3.85095 0.27304C4.0549 0.319028 4.21897 0.42827 4.34604 0.528063ZM3.49243 1.59227C3.17647 1.72529 2.87332 1.88689 2.58675 2.07506C2.01478 2.45522 1.76958 2.72152 1.59386 3.09701C1.47708 3.34654 1.26096 4.33191 2.47648 6.54008C3.7006 8.76388 4.54372 9.88005 6.32105 11.6524C8.09282 13.4193 9.44357 14.3618 11.448 15.486C12.6747 16.173 13.4699 16.4184 13.9836 16.4825C14.4682 16.5429 14.7223 16.4453 14.8986 16.3632C15.2771 16.1869 15.5445 15.9434 15.9241 15.3734C16.1127 15.0874 16.2746 14.7846 16.4078 14.4689C16.4258 14.4259 16.4434 14.3862 16.4583 14.353C16.4 14.2839 16.3108 14.1882 16.1734 14.0495C15.9138 13.788 15.4319 13.4342 14.8927 13.0853C14.3632 12.7428 13.8251 12.4347 13.4845 12.2629C13.2386 12.1391 13.0811 12.0603 12.9568 12.0095C12.8359 11.9602 12.8007 11.9611 12.8021 11.9612C12.8134 11.9612 12.7748 11.9391 12.365 12.2436C12.3231 12.2747 12.2778 12.3094 12.2299 12.3461C12.0473 12.4861 11.8262 12.6556 11.6071 12.7696C11.2797 12.9401 10.9039 13.0259 10.4509 12.9293C10.0545 12.8447 9.51979 12.5941 8.9699 12.2516C8.40507 11.8998 7.77384 11.4195 7.1838 10.8314C6.59388 10.2433 6.10305 9.60447 5.74116 9.03263C5.39004 8.47782 5.12594 7.93212 5.04014 7.53242C4.94244 7.07732 5.03151 6.70148 5.20307 6.37604C5.31362 6.16632 5.47889 5.94964 5.61491 5.7713C5.65493 5.71883 5.69242 5.66967 5.72524 5.62499C5.98798 5.26725 5.98181 5.21022 5.98114 5.204C5.98111 5.2038 5.9811 5.20365 5.9811 5.20354C5.98108 5.1915 5.9783 5.14536 5.93213 5.02089C5.88491 4.89359 5.8114 4.7325 5.69823 4.48913C5.54368 4.15767 5.24073 3.62912 4.89381 3.10158C4.54287 2.56793 4.1809 2.08745 3.91641 1.82724L3.91596 1.8268L3.91552 1.82636C3.77595 1.6885 3.67997 1.59916 3.61067 1.541C3.577 1.55605 3.53642 1.57397 3.49243 1.59227Z" fill="#070707"/>
</svg>
