<svg width="18" height="14" viewBox="0 0 18 14" fill="none" xmlns="http://www.w3.org/2000/svg">
<path fill-rule="evenodd" clip-rule="evenodd" d="M2.4375 1.375C1.91973 1.375 1.5 1.79473 1.5 2.3125V11.6875C1.5 12.2053 1.91973 12.625 2.4375 12.625H15.5625C16.0803 12.625 16.5 12.2053 16.5 11.6875V2.3125C16.5 1.79473 16.0803 1.375 15.5625 1.375H2.4375ZM0.25 2.3125C0.25 1.10438 1.22938 0.125 2.4375 0.125H15.5625C16.7706 0.125 17.75 1.10438 17.75 2.3125V11.6875C17.75 12.8956 16.7706 13.875 15.5625 13.875H2.4375C1.22938 13.875 0.25 12.8956 0.25 11.6875V2.3125Z" fill="#070707"/>
<path fill-rule="evenodd" clip-rule="evenodd" d="M2.88168 2.86632C3.0936 2.59385 3.48627 2.54476 3.75874 2.75668L9.00003 6.83324L14.2413 2.75668C14.5138 2.54476 14.9065 2.59385 15.1184 2.86632C15.3303 3.13878 15.2812 3.53146 15.0087 3.74337L9.38374 8.11837C9.15805 8.29391 8.84201 8.29391 8.61632 8.11837L2.99132 3.74337C2.71885 3.53146 2.66976 3.13878 2.88168 2.86632Z" fill="#070707"/>
</svg>
