<svg width="18" height="21" viewBox="0 0 18 21" fill="none" xmlns="http://www.w3.org/2000/svg">
<path d="M14.2786 1.33798L15.3844 2.43925L14.3463 3.47306L14.2351 3.39158C12.104 1.80142 9.07403 2.01913 7.18861 3.89321C6.59032 4.48649 6.13518 5.22237 5.87569 6.01554C5.71205 6.51078 5.62001 7.02897 5.61106 7.54713C5.57143 9.02015 6.14415 10.4576 7.18861 11.4977C7.72554 12.0324 8.35324 12.4334 9.06022 12.7033C9.19062 12.3188 9.26349 11.914 9.26349 11.4977C9.26349 11.4722 9.25965 11.4417 9.25965 11.4162C8.825 11.2138 8.42867 10.9439 8.08863 10.5976C7.35865 9.8744 6.93297 8.90937 6.88437 7.87941C6.8588 7.31921 6.94957 6.74503 7.15283 6.22051C7.36249 5.67306 7.67955 5.19052 8.08864 4.78312C9.69944 3.17894 12.3177 3.17894 13.9272 4.78312C15.538 6.38983 15.538 8.99734 13.9272 10.5976C13.1844 11.3411 12.2052 11.7575 11.1582 11.7969C11.1352 12.2209 11.0636 12.6474 10.9459 13.0586C12.3931 13.0714 13.7994 12.5175 14.8271 11.4977C16.7127 9.61986 16.9288 6.60234 15.3282 4.48023L15.2464 4.36947L16.2845 3.33312L17.3941 4.43439L17.954 0.777832L14.2824 1.33803L14.2786 1.33798Z" fill="black"/>
<path d="M0.0522461 11.4977C0.0522461 14.1509 2.04144 16.4348 4.68021 16.8132L4.81828 16.8323V17.9794H4.0231V19.2436H4.81828V20.3284H6.08518V19.2436H6.88036V17.9794H6.08518V16.8323L6.22326 16.8132C8.23546 16.5229 9.94729 15.0919 10.5825 13.1694C10.75 12.6767 10.8382 12.1623 10.8472 11.6441C10.851 11.5881 10.851 11.5461 10.851 11.4977C10.851 9.27862 9.47288 7.2861 7.40186 6.48791C7.26379 6.89913 7.19604 7.3422 7.20499 7.77887C8.57672 8.42437 9.50611 9.793 9.57772 11.308C9.58155 11.364 9.58155 11.4315 9.58155 11.4964C9.58155 12.0044 9.48951 12.5035 9.3067 12.9694C8.70072 14.5507 7.15003 15.6125 5.4547 15.6125C3.17658 15.6125 1.32812 13.7677 1.32812 11.499C1.32812 9.23026 3.10255 7.47316 5.31168 7.39559C5.33085 6.96527 5.40372 6.53876 5.5239 6.125H5.45486C2.47615 6.125 0.0548603 8.53633 0.0548603 11.5028L0.0522461 11.4977Z" fill="black"/>
</svg>
