<svg width="18" height="18" viewBox="0 0 18 18" fill="none" xmlns="http://www.w3.org/2000/svg">
<path d="M9.1133 0.875023C4.54377 0.813304 0.813304 4.54377 0.875023 9.1133C0.93596 13.4957 4.50432 17.0641 8.88674 17.125C13.4571 17.1875 17.1867 13.4571 17.1242 8.88752C17.0641 4.50432 13.4957 0.93596 9.1133 0.875023ZM14.0516 13.6582C14.036 13.6751 14.017 13.6883 13.9957 13.6969C13.9745 13.7055 13.9516 13.7094 13.9287 13.7082C13.9058 13.707 13.8835 13.7008 13.8633 13.69C13.8431 13.6792 13.8255 13.6641 13.8117 13.6457C13.4623 13.1886 13.0345 12.7972 12.5481 12.4899C11.5535 11.8516 10.2934 11.5 9.00002 11.5C7.70666 11.5 6.44651 11.8516 5.45198 12.4899C4.9656 12.7971 4.53772 13.1883 4.1883 13.6453C4.17458 13.6637 4.15698 13.6788 4.13676 13.6896C4.11654 13.7004 4.0942 13.7066 4.07131 13.7078C4.04842 13.709 4.02555 13.7051 4.00432 13.6965C3.98309 13.6879 3.96402 13.6747 3.94846 13.6578C2.80224 12.4205 2.15295 10.8037 2.12502 9.11721C2.06135 5.31604 5.18049 2.1344 8.98323 2.12502C12.786 2.11565 15.875 5.20354 15.875 9.00002C15.8763 10.7271 15.225 12.391 14.0516 13.6582V13.6582Z" fill="#070707"/>
<path d="M9.00005 4.625C8.22974 4.625 7.53325 4.91367 7.03833 5.43828C6.54341 5.96289 6.29614 6.68828 6.352 7.4668C6.46528 9 7.65317 10.25 9.00005 10.25C10.3469 10.25 11.5325 9 11.6481 7.46719C11.7059 6.69609 11.4606 5.97734 10.9575 5.44297C10.4606 4.91563 9.76528 4.625 9.00005 4.625Z" fill="#070707"/>
</svg>
